<svg width="210" height="137" viewBox="0 0 210 137" fill="none" xmlns="http://www.w3.org/2000/svg">
<g opacity="0.05">
<path d="M141.237 128.192C141.237 132.394 144.693 135.84 148.91 135.84H202.406C206.622 135.84 210.079 132.394 210.079 128.192V74.8705C210.079 70.6679 206.622 67.2225 202.406 67.2225H148.91C144.693 67.2225 141.237 70.6679 141.237 74.8705V128.192Z" fill="#07BFDD"/>
<path d="M71.5268 60.9691C71.5268 65.1717 74.9835 68.617 79.1999 68.617H132.696C136.912 68.617 140.369 65.1717 140.369 60.9691V7.64795C140.369 3.44537 136.912 0 132.696 0H79.1999C74.9835 0 71.5268 3.44537 71.5268 7.64795V60.9691Z" fill="#007FFF"/>
<path d="M138.455 196.111C138.455 200.314 134.999 203.759 130.782 203.759H77.2863C73.0699 203.759 69.6133 200.314 69.6133 196.111V142.79C69.6133 138.588 73.0699 135.142 77.2863 135.142H130.782C134.999 135.142 138.455 138.588 138.455 142.79V196.111Z" fill="#1DA5F8"/>
<path d="M68.842 128.894C68.842 133.097 65.3854 136.542 61.169 136.542H7.67303C3.45666 136.542 0 133.109 0 128.894V75.5731C0 71.3705 3.45666 67.9252 7.67303 67.9252H61.169C65.3854 67.9252 68.842 71.3705 68.842 75.5731V128.894Z" fill="#8CC936"/>
</g>
</svg>
